<svg id="Capa_1" data-name="Capa 1" xmlns="http://www.w3.org/2000/svg" viewBox="0 0 512 512"><defs><style>.cls-1{fill:#e50c00;}.cls-2{fill:#fff;}</style></defs><path class="cls-1" d="M242.69,0h26.62c1.48.32,3,.69,4.45.94,16.61,2.81,33.57,4.3,49.78,8.59C421,35.34,495.2,119.47,509,218.91c1.1,7.91,2,15.85,3,23.78v26.62a31.6,31.6,0,0,0-.93,4.44c-2.42,36.21-11.75,70.6-29.28,102.33-40,72.37-100.73,116.6-182.19,131.87-9.67,1.81-19.5,2.72-29.26,4.05H241.66a24.67,24.67,0,0,0-3.92-.9c-18.44-1.15-36.66-4-54.17-9.79Q35.46,452.53,4.07,299.59c-2-9.63-2.74-19.5-4.07-29.25V241.66a33.08,33.08,0,0,0,.93-4.44C3.34,204,11.45,172.31,26.71,142.75Q85.89,28.1,212.91,4C222.74,2.16,232.76,1.31,242.69,0Zm12.18,221.24c7.46.68,15,.82,22.38,2.14,19.62,3.54,39.46,6.81,54.22,22.32A40.81,40.81,0,0,1,343,270.45c.62,6.59.4,13.27,1.08,19.85,1.58,15.08,8.93,26.27,23.15,32.35a86.51,86.51,0,0,0,11.55,4.07c20.44,5.47,41.47,5.64,62.39,7,7.71.5,13.23-2.53,17.62-8.24,7.13-9.27,10-20,10.15-31.56a14.36,14.36,0,0,0-2.22-8c-10.13-14.33-19.87-29-31.06-42.5-30.17-36.31-68.27-59.7-115.25-67.54-40.7-6.79-81.55-6.76-122.34-1.36-33.76,4.47-64.53,16.71-91.31,38.18C83.63,231.21,65.62,254.22,49,278.54c-5.46,7.95-8.06,15.67-6.06,25.23C45,313.68,47,323.48,53.5,331.64c3.59,4.53,8,7.09,14.12,6.54,8.31-.74,16.71-.61,25-1.36,16.15-1.45,32.22-3.43,47.28-10.09,14.39-6.35,23.1-17.15,25.6-32.69A112.42,112.42,0,0,0,167,277.26c.19-21.39,10.37-36.75,30.38-44.6A167.48,167.48,0,0,1,254.87,221.24Z"/><path class="cls-2" d="M254.87,221.24a167.48,167.48,0,0,0-57.45,11.42c-20,7.85-30.19,23.21-30.38,44.6A112.42,112.42,0,0,1,165.52,294c-2.5,15.54-11.21,26.34-25.6,32.69-15.06,6.66-31.13,8.64-47.28,10.09-8.31.75-16.71.62-25,1.36-6.17.55-10.53-2-14.12-6.54-6.49-8.16-8.54-18-10.61-27.87-2-9.56.6-17.28,6.06-25.23,16.67-24.32,34.68-47.33,57.83-65.9,26.78-21.47,57.55-33.71,91.31-38.18,40.79-5.4,81.64-5.43,122.34,1.36,47,7.84,85.08,31.23,115.25,67.54,11.19,13.48,20.93,28.17,31.06,42.5a14.36,14.36,0,0,1,2.22,8c-.13,11.51-3,22.29-10.15,31.56-4.39,5.71-9.91,8.74-17.62,8.24-20.92-1.34-41.95-1.51-62.39-7a86.51,86.51,0,0,1-11.55-4.07c-14.22-6.08-21.57-17.27-23.15-32.35-.68-6.58-.46-13.26-1.08-19.85a40.81,40.81,0,0,0-11.55-24.75c-14.76-15.51-34.6-18.78-54.22-22.32C269.9,222.06,262.33,221.92,254.87,221.24Z"/></svg>