<svg id="Capa_1" data-name="Capa 1" xmlns="http://www.w3.org/2000/svg" viewBox="0 0 512 512"><path d="M256,0A100.09,100.09,0,0,0,156,100v169.9a100.09,100.09,0,0,0,100,100c55.12,0,100-45.11,100-100.55V100A100.08,100.08,0,0,0,256,0Zm65.3,269.29c0,36.33-29.29,65.88-65.3,65.88a65.38,65.38,0,0,1-65.3-65.3V100a65.3,65.3,0,0,1,130.6,0Z"/><rect x="238.66" y="420.12" width="34.67" height="78.59"/><path d="M327.66,477.33H184.34a17.34,17.34,0,0,0,0,34.67H327.66a17.34,17.34,0,0,0,0-34.67Z"/><path d="M402.2,184.34a17.33,17.33,0,0,0-17.33,17.34v68.19a128.87,128.87,0,0,1-257.74,0V201.68a17.34,17.34,0,1,0-34.67,0v68.19c0,90.18,73.36,163.54,163.54,163.54s163.54-73.36,163.54-163.54V201.68A17.34,17.34,0,0,0,402.2,184.34Z"/></svg>