<svg id="Capa_1" data-name="Capa 1" xmlns="http://www.w3.org/2000/svg" viewBox="0 0 512 512"><path d="M372.4,339.88v6.47q0,34.69,0,69.38c0,17.71-9.19,26.85-27,26.85H27c-17.68,0-27-9.28-27-26.87Q0,255.92,0,96.1C0,78.63,9.22,69.44,26.57,69.43q158.64,0,317.29,0a45.66,45.66,0,0,1,11.86,1.2c10.4,2.85,16.59,12,16.63,24.15.08,23.49,0,47,0,70.48v7c2.48-1.18,4.36-2,6.18-2.93q48.29-24.6,96.55-49.25c5.64-2.89,11.37-4.81,17.77-3.48,11.66,2.43,18.95,11.66,19,24.51C512,160,512,179,512,197.91q0,85.79-.05,171.56c0,13.83-6.41,22.89-18.07,25.82-6.57,1.65-12.5-.12-18.33-3.11q-48.48-24.81-97-49.49C376.77,341.81,375,341.06,372.4,339.88Zm-47,55.82V116.49H47.06V395.7ZM465.13,178.32a6.11,6.11,0,0,0-1.77.2c-29.45,14.93-58.91,29.83-88.26,44.95-1.4.73-2.56,3.37-2.58,5.13-.2,18,0,36-.24,54,0,3.7,1.29,5.42,4.43,7,28,14.1,56,28.36,84,42.56,1.34.67,2.78,1.13,4.45,1.8Z"/><path d="M140.94,209.23c-8,0-16,.11-23.94,0C103.87,209,93.76,198.8,93.71,186c0-13,10.26-23.05,23.75-23.09q23.42-.08,46.81-.05c13.84.05,24.21,10.19,24.07,23.4-.13,13-10.39,22.84-24,22.93C156.55,209.28,148.75,209.23,140.94,209.23Z"/></svg>